<svg xmlns="http://www.w3.org/2000/svg" viewBox="0 0 512 512">
  <rect width="512" height="512" rx="96" fill="#110d1b"/>

  <!-- Pixel-art "P" in violet -->
  <!-- Grid: 56px blocks, 8px gaps, stride 64px -->
  <!-- Origin: x=88, y=72 -->

  <!-- Left vertical bar (6 blocks) -->
  <rect x="88" y="72" width="56" height="56" rx="6" fill="#7c3aed"/>
  <rect x="88" y="136" width="56" height="56" rx="6" fill="#7c3aed"/>
  <rect x="88" y="200" width="56" height="56" rx="6" fill="#7c3aed"/>
  <rect x="88" y="264" width="56" height="56" rx="6" fill="#7c3aed"/>
  <rect x="88" y="328" width="56" height="56" rx="6" fill="#7c3aed"/>
  <rect x="88" y="392" width="56" height="56" rx="6" fill="#7c3aed"/>

  <!-- Top bar (3 blocks) -->
  <rect x="152" y="72" width="56" height="56" rx="6" fill="#7c3aed"/>
  <rect x="216" y="72" width="56" height="56" rx="6" fill="#8b5cf6"/>
  <rect x="280" y="72" width="56" height="56" rx="6" fill="#8b5cf6"/>

  <!-- Right side of bump (2 blocks) -->
  <rect x="344" y="72" width="56" height="56" rx="6" fill="#9333ea"/>
  <rect x="344" y="136" width="56" height="56" rx="6" fill="#9333ea"/>

  <!-- Middle bar (3 blocks) -->
  <rect x="152" y="200" width="56" height="56" rx="6" fill="#7c3aed"/>
  <rect x="216" y="200" width="56" height="56" rx="6" fill="#8b5cf6"/>
  <rect x="280" y="200" width="56" height="56" rx="6" fill="#8b5cf6"/>
  <rect x="344" y="200" width="56" height="56" rx="6" fill="#9333ea"/>

  <!-- Cursor -->
  <rect x="360" y="340" width="18" height="64" rx="4" fill="#c4b5fd"/>

  <!-- Decorative fading pixels -->
  <rect x="152" y="392" width="28" height="28" rx="4" fill="#7c3aed" opacity="0.15"/>
  <rect x="152" y="328" width="28" height="28" rx="4" fill="#7c3aed" opacity="0.1"/>
</svg>
